<?xml version="1.0" encoding="utf-8"?>
<!-- Generator: Adobe Illustrator 27.5.0, SVG Export Plug-In . SVG Version: 6.00 Build 0)  -->
<svg version="1.1" xmlns="http://www.w3.org/2000/svg" xmlns:xlink="http://www.w3.org/1999/xlink" x="0px" y="0px"
	 viewBox="0 0 500 500" style="enable-background:new 0 0 500 500;" xml:space="preserve">
<g id="Background_Complete">
	<g>
		<rect x="416.779" y="398.494" style="fill:#EBEBEB;" width="33.122" height="0.25"/>
		<rect x="322.527" y="401.208" style="fill:#EBEBEB;" width="8.693" height="0.25"/>
		<rect x="396.586" y="389.208" style="fill:#EBEBEB;" width="19.192" height="0.25"/>
		<rect x="52.459" y="390.888" style="fill:#EBEBEB;" width="43.193" height="0.25"/>
		<rect x="104.556" y="390.888" style="fill:#EBEBEB;" width="6.333" height="0.25"/>
		<rect x="131.471" y="395.111" style="fill:#EBEBEB;" width="93.676" height="0.25"/>
		<g>
			<path style="fill:#EBEBEB;" d="M238.401,337.8H45.302c-3.147,0-5.708-2.561-5.708-5.708V60.66c0-3.147,2.561-5.708,5.708-5.708
				h193.099c3.146,0,5.707,2.561,5.707,5.708v271.432C244.108,335.239,241.547,337.8,238.401,337.8z M45.302,55.203
				c-3.01,0-5.458,2.448-5.458,5.458v271.432c0,3.01,2.448,5.458,5.458,5.458h193.099c3.009,0,5.457-2.448,5.457-5.458V60.66
				c0-3.009-2.448-5.458-5.457-5.458H45.302z"/>
			<path style="fill:#EBEBEB;" d="M454.698,337.8H261.599c-3.146,0-5.707-2.561-5.707-5.708V60.66c0-3.147,2.561-5.708,5.707-5.708
				h193.099c3.148,0,5.708,2.561,5.708,5.708v271.432C460.406,335.239,457.845,337.8,454.698,337.8z M261.599,55.203
				c-3.009,0-5.457,2.448-5.457,5.458v271.432c0,3.01,2.448,5.458,5.457,5.458h193.099c3.01,0,5.458-2.448,5.458-5.458V60.66
				c0-3.009-2.448-5.458-5.458-5.458H261.599z"/>
		</g>
		<rect y="382.398" style="fill-opacity: 0; " width="500" height="0.25"/>
	</g>
	<g>
		<g>
			<g>
				<path style="fill:#F5F5F5;" d="M412.853,352.831c0,0-0.671-34.22,9.394-55.357c10.065-21.136,19.459-38.582,25.833-45.627
					c0,0-18.788,47.64-21.472,61.395c-2.684,13.755-9.394,39.588-9.394,39.588H412.853z"/>
				<path style="fill:#E6E6E6;" d="M414.363,351.321c0,0,0.839-36.737,8.052-50.827c7.213-14.091,18.788-36.066,18.788-36.066
					s-13.252,32.207-16.104,45.795c-2.852,13.587-9.226,41.098-9.226,41.098H414.363z"/>
			</g>
			<g>
				<path style="fill:#F0F0F0;" d="M407.761,354.358c0,0,0.671-34.22-9.394-55.357c-10.065-21.136-19.459-38.582-25.833-45.627
					c0,0,18.788,47.64,21.472,61.395c2.684,13.755,9.394,39.588,9.394,39.588H407.761z"/>
				<path style="fill:#E0E0E0;" d="M406.252,352.849c0,0-0.839-36.737-8.052-50.827c-7.213-14.091-18.788-36.066-18.788-36.066
					s13.252,32.207,16.104,45.795c2.852,13.587,9.226,41.098,9.226,41.098H406.252z"/>
			</g>
			<g>
				<path style="fill:#EBEBEB;" d="M406.655,353.585c0,0,9.734-32.814,5.644-55.864c-4.09-23.05-8.514-42.364-12.789-50.849
					c0,0,5.462,50.919,4.396,64.893c-1.065,13.974-1.457,40.661-1.457,40.661L406.655,353.585z"/>
				<path style="fill:#FAFAFA;" d="M405.6,351.729c0,0,8.947-35.64,5.735-51.141c-3.212-15.5-8.535-39.76-8.535-39.76
					s4.223,34.57,3.364,48.427c-0.859,13.857-2.019,42.073-2.019,42.073L405.6,351.729z"/>
			</g>
			<g>
				<path style="fill:#F5F5F5;" d="M409.953,355.193c0,0-6.885-33.527-0.833-56.142c6.052-22.615,12.115-41.478,17.102-49.565
					c0,0-9.808,50.263-9.944,64.277c-0.137,14.014-2.035,40.637-2.035,40.637L409.953,355.193z"/>
				<path style="fill:#E6E6E6;" d="M411.162,353.434c0,0-5.858-36.276-1.329-51.444c4.529-15.168,11.913-38.882,11.913-38.882
					s-7.172,34.081-7.504,47.96c-0.332,13.88-1.596,42.091-1.596,42.091L411.162,353.434z"/>
			</g>
			<path style="fill:#EBEBEB;" d="M414.522,382.983h-10.557c-4.155,0-7.593-3.233-7.848-7.38l-1.956-24.748h30.166l-1.957,24.748
				C422.114,379.751,418.676,382.983,414.522,382.983z"/>
		</g>
		<g>
			<g>
				<path style="fill:#E6E6E6;" d="M102.752,323.321c0.124,0.139-0.561,1.095,2.228,0.676c6.869-1.033,18.832-3.815,22.163-10.884
					c4.756-10.093-9.99-6.408-9.481-11.566c0.509-5.158,17.287-4.26,19.069-11.827c1.783-7.567-9.6-3.964-9.75-7.651
					c-0.151-3.688,12.961-1.399,15.564-9.563c2.603-8.164-7.307-2.155-6.168-5.548c1.139-3.394,12.232-18.748,6.195-20.53
					c-6.036-1.783-16.204,13.973-20.127,16.206s-7.41-10.627-12.087-5.198c-4.677,5.43,2.741,24.426-3.225,28.112
					c-4.443,2.745-3.188-4.817-9.052-3.406C90.116,284.06,92.796,312.184,102.752,323.321z"/>
				<path style="fill:#F5F5F5;" d="M123.956,282.111c-2.703,0.226-4.698,0.776-5.937,1.22c2.421-3.546,4.162-5.365,4.224-5.428
					c0.197-0.201,0.194-0.522-0.006-0.72c-0.2-0.197-0.522-0.194-0.719,0.005c-0.049,0.049-4.064,4.186-8.461,12.276
					c-2.16-13.018,3.292-24.397,3.349-24.514c0.093-0.189,0.014-0.418-0.175-0.511c-0.188-0.094-0.418-0.014-0.51,0.175
					c-0.06,0.122-5.88,12.266-3.242,25.926c-0.702,1.34-1.41,2.773-2.11,4.312c-2.02,4.446-4.133,10.145-5.804,17.014
					c-1.16-2.095-3.817-7.706-4.055-15.538c-0.006-0.211-0.182-0.376-0.393-0.37c-0.214,0.015-0.376,0.183-0.37,0.394
					c0.275,9.063,3.748,15.262,4.554,16.583c-2.211,9.53-3.536,21.26-2.584,35.077c0.019,0.281,0.262,0.492,0.543,0.473
					c0.022-0.001,0.043-0.004,0.063-0.008c0.248-0.049,0.427-0.275,0.41-0.534c-1.261-18.296,1.476-33.002,5.261-44.137
					c0.961-1.111,3.801-3.963,8.123-4.634c0.196-0.047,0.351-0.229,0.318-0.437c-0.033-0.207-0.228-0.35-0.436-0.318
					c-3.418,0.542-5.922,2.314-7.409,3.682c2.794-7.736,6.045-13.617,8.679-17.643c0.849-0.383,3.169-1.284,6.751-1.584
					c0.207-0.026,0.366-0.202,0.348-0.413C124.351,282.249,124.167,282.094,123.956,282.111z"/>
			</g>
			<g>
				<g>
					<path style="fill:#E0E0E0;" d="M93.95,327.218c-5.709,0.108-15.46-5.193-19.288-10.351c-3.884-5.234,7.043-1.987,5.921-6.096
						c-1.122-4.11-14.595-1.072-17.081-6.959c-2.486-5.887,7.234-4.534,6.848-7.543c-0.386-3.009-10.456-2.397-13.689-8.655
						c-3.233-6.258,5.625-2.752,4.235-5.345c-1.39-2.593-12.493-13.509-7.847-15.784c4.646-2.275,15.054,9.093,18.541,10.362
						c3.487,1.269,4.302-6.584,8.839-2.828c4.537,3.757,1.141,20.171,6.483,22.337c3.978,1.613,2.286-5.903,6.866-4.006
						C101.796,295.671,96.267,327.174,93.95,327.218z"/>
					<g style="opacity:0.3;">
						<path style="fill:#E0E0E0;" d="M93.95,327.218c-5.709,0.108-15.46-5.193-19.288-10.351c-3.884-5.234,7.043-1.987,5.921-6.096
							c-1.122-4.11-14.595-1.072-17.081-6.959c-2.486-5.887,7.234-4.534,6.848-7.543c-0.386-3.009-10.456-2.397-13.689-8.655
							c-3.233-6.258,5.625-2.752,4.235-5.345c-1.39-2.593-12.493-13.509-7.847-15.784c4.646-2.275,15.054,9.093,18.541,10.362
							c3.487,1.269,4.302-6.584,8.839-2.828c4.537,3.757,1.141,20.171,6.483,22.337c3.978,1.613,2.286-5.903,6.866-4.006
							C101.796,295.671,96.267,327.174,93.95,327.218z"/>
					</g>
				</g>
				<path style="fill:#F5F5F5;" d="M92.064,320.366c0.082-0.032,0.157-0.082,0.202-0.167c0.134-0.254,3.262-6.307,2.561-15.304
					c-0.017-0.21-0.194-0.364-0.411-0.351c-0.21,0.017-0.367,0.2-0.351,0.411c0.593,7.597-1.675,13.157-2.311,14.545
					c-2.556-6.938-5.618-13.109-8.694-18.391c1.01-12.259-5.272-22.296-5.336-22.397c-0.113-0.178-0.349-0.23-0.527-0.117
					c-0.178,0.113-0.231,0.349-0.117,0.527c0.061,0.095,5.83,9.324,5.292,20.805c-7.317-12.255-14.459-19.376-14.602-19.516
					c-0.2-0.196-0.523-0.195-0.72,0.008c-0.197,0.2-0.194,0.523,0.007,0.72c0.12,0.117,5.198,5.191,11.142,14.088
					c-3.483-1.295-7.262-1.969-10.793-1.901c-0.211,0.004-0.378,0.178-0.374,0.39c0.004,0.208,0.174,0.374,0.382,0.374
					c0.003,0,0.005,0,0.007,0c3.781-0.068,7.85,0.723,11.512,2.242c2.044,3.133,4.166,6.715,6.212,10.683
					c-1.963-1.327-5.774-3.164-10.65-1.875c-0.204,0.054-0.326,0.262-0.272,0.466c0.054,0.204,0.262,0.329,0.467,0.271
					c6.185-1.631,10.543,2.065,11.257,2.722c5.598,11.273,10.426,25.524,11.066,41.855c0.011,0.274,0.236,0.489,0.508,0.489
					c0.007,0,0.013,0,0.02,0c0.281-0.011,0.499-0.248,0.489-0.529C97.598,339.363,95.257,329.262,92.064,320.366z"/>
			</g>
			<path style="fill:#E0E0E0;" d="M110.004,382.983c5.449-10.246,9.029-25.052,9.029-31.541c0-5.485-2.572-10.407-6.654-13.854
				H84.475c-4.082,3.447-6.654,8.37-6.654,13.854c0,6.49,3.58,21.295,9.029,31.541H110.004z"/>
		</g>
	</g>
	<g>
		<g>
			<rect x="136.968" y="58.176" style="fill:#E6E6E6;" width="1.144" height="33.909"/>
			<g>
				<polygon style="fill:#EBEBEB;" points="101.307,110.928 137.54,89.031 173.773,110.928 				"/>
				<polygon style="fill:#F5F5F5;" points="140.041,110.928 137.54,89.031 153.827,110.928 				"/>
			</g>
		</g>
		<g>
			<rect x="361.888" y="58.176" style="fill:#E6E6E6;" width="1.144" height="33.909"/>
			<g>
				<polygon style="fill:#F0F0F0;" points="326.227,110.928 362.46,89.031 398.693,110.928 				"/>
				<polygon style="fill:#FAFAFA;" points="364.961,110.928 362.46,89.031 378.748,110.928 				"/>
			</g>
		</g>
	</g>
</g>
<g id="Background_Simple" style="display:none;">
	<g style="display:inline;">
		<path style="fill:#407BFF;" d="M342.554,141.058c35.913,26.027,96.514,80.845,86.116,142.133
			c-11.941,70.385-102.487,58.786-157.02,35.377c-27.643-11.866-49.026-4.446-74.974,6.602
			c-31.967,13.61-61.351,12.698-92.233-4.873c-39.663-22.568-52.194-60.561-44.511-102.937
			c9.422-51.966,48.386-98.48,99.941-109.354C221.508,95.005,293.446,105.468,342.554,141.058z"/>
		<path style="opacity:0.9;fill:#FFFFFF;" d="M342.554,141.058c35.913,26.027,96.514,80.845,86.116,142.133
			c-11.941,70.385-102.487,58.786-157.02,35.377c-27.643-11.866-49.026-4.446-74.974,6.602
			c-31.967,13.61-61.351,12.698-92.233-4.873c-39.663-22.568-52.194-60.561-44.511-102.937
			c9.422-51.966,48.386-98.48,99.941-109.354C221.508,95.005,293.446,105.468,342.554,141.058z"/>
	</g>
</g>
<g id="Shadow">
	<ellipse id="_x3C_Path_x3E__1_" style="fill:#F5F5F5;" cx="245.178" cy="412.391" rx="193.889" ry="11.323"/>
</g>
<g id="Board">
	<g>
		<g>
			<path style="fill:#407BFF;" d="M186.117,137.163c-0.105-1.284-1.178-2.272-2.466-2.272c-1.288,0-2.361,0.988-2.466,2.272
				l-0.26,3.18h5.452L186.117,137.163z M183.652,138.821c-0.665,0-1.204-0.539-1.204-1.204c0-0.665,0.539-1.204,1.204-1.204
				c0.665,0,1.204,0.539,1.204,1.204C184.856,138.281,184.317,138.821,183.652,138.821z"/>
			<path style="fill:#407BFF;" d="M311.555,137.163c-0.105-1.284-1.178-2.272-2.466-2.272c-1.288,0-2.361,0.988-2.466,2.272
				l-0.26,3.18h5.452L311.555,137.163z M309.09,138.821c-0.665,0-1.204-0.539-1.204-1.204c0-0.665,0.539-1.204,1.204-1.204
				c0.665,0,1.204,0.539,1.204,1.204C310.294,138.281,309.755,138.821,309.09,138.821z"/>
			<rect x="158.571" y="139.835" style="fill:#263238;" width="174.303" height="107.998"/>
			<rect x="158.571" y="139.835" style="opacity:0.6;fill:#FFFFFF;" width="174.303" height="107.998"/>
			<rect x="163.032" y="144.296" style="opacity:0.9;fill:#FFFFFF;" width="165.381" height="99.077"/>
			<g>
				<rect x="156.516" y="244.87" style="fill:#263238;" width="178.413" height="5.176"/>
				<rect x="156.516" y="244.87" style="opacity:0.7;fill:#FFFFFF;" width="178.413" height="5.176"/>
			</g>
		</g>
		<g>
			<rect x="179.757" y="162.127" style="opacity:0.2;fill:#263238;" width="12.717" height="16.71"/>
			<g>
				<path style="fill:#407BFF;" d="M197.329,178.836c-4.333-8.29-3-16.71-3-16.71h-14.379c0,0-1.333,8.419,3,16.71H197.329z"/>
				<path style="opacity:0.5;fill:#FFFFFF;" d="M197.329,178.836c-4.333-8.29-3-16.71-3-16.71h-14.379c0,0-1.333,8.419,3,16.71
					H197.329z"/>
			</g>
		</g>
		<g>
			<rect x="301.869" y="162.127" style="opacity:0.2;fill:#263238;" width="12.717" height="16.71"/>
			<g>
				<path style="fill:#407BFF;" d="M319.441,178.836c-4.333-8.29-3-16.71-3-16.71h-14.379c0,0-1.333,8.419,3,16.71H319.441z"/>
				<path style="opacity:0.2;fill:#FFFFFF;" d="M319.441,178.836c-4.333-8.29-3-16.71-3-16.71h-14.379c0,0-1.333,8.419,3,16.71
					H319.441z"/>
			</g>
		</g>
		<g>
			<rect x="209.566" y="162.423" style="opacity:0.2;fill:#263238;" width="12.717" height="16.709"/>
			<path style="fill:#407BFF;" d="M227.138,179.132c-4.333-8.29-3-16.71-3-16.71H209.76c0,0-1.333,8.419,3,16.71H227.138z"/>
			<path style="opacity:0.8;fill:#FFFFFF;" d="M227.138,179.132c-4.333-8.29-3-16.71-3-16.71H209.76c0,0-1.333,8.419,3,16.71
				H227.138z"/>
		</g>
		<g>
			<rect x="275.903" y="162.127" style="opacity:0.2;fill:#263238;" width="12.717" height="16.71"/>
			<g>
				<path style="fill:#407BFF;" d="M293.475,178.836c-4.333-8.29-3-16.71-3-16.71h-14.379c0,0-1.333,8.419,3,16.71H293.475z"/>
				<path style="opacity:0.6;fill:#FFFFFF;" d="M293.475,178.836c-4.333-8.29-3-16.71-3-16.71h-14.379c0,0-1.333,8.419,3,16.71
					H293.475z"/>
			</g>
		</g>
		<g>
			<path style="fill:#407BFF;" d="M269.47,176.381c-1.281-7.74,2.99-14.935,10.723-16.971c7.841-2.065,17.067,2.409,17.834,11.042
				c1.409,15.845-23.02,19.824-26.793,4.848c-0.155-0.617-1.11-0.356-0.954,0.263c1.907,7.568,8.312,10.568,15.859,10.112
				c8.001-0.484,13.963-8.068,12.826-16.007c-1.236-8.631-10.419-13.142-18.435-11.346c-8.608,1.929-13.421,9.827-12.015,18.323
				C268.619,177.271,269.573,177.005,269.47,176.381L269.47,176.381z"/>
		</g>
		<g>
			<g>
				<path style="fill:#407BFF;" d="M178.969,189.813c12.464-3.011,25.451-4.332,38.241-4.704c0.674-0.02,0.677-1.07,0-1.05
					c-12.868,0.374-25.976,1.711-38.52,4.742C178.033,188.96,178.311,189.972,178.969,189.813L178.969,189.813z"/>
			</g>
			<g>
				<path style="fill:#407BFF;" d="M188.274,191.59c7.464-1.793,15.21-2.569,22.866-2.812c0.674-0.021,0.677-1.072,0-1.05
					c-7.739,0.246-15.598,1.037-23.145,2.85C187.338,190.736,187.616,191.748,188.274,191.59L188.274,191.59z"/>
			</g>
		</g>
	</g>
</g>
<g id="Character_3">
	<g>
		<g>
			<path style="fill:#263238;" d="M376.729,174.707c-0.098,0.481-0.432,0.819-0.746,0.755c-0.314-0.064-0.49-0.506-0.392-0.987
				c0.098-0.481,0.432-0.819,0.746-0.755C376.652,173.785,376.827,174.226,376.729,174.707z"/>
			<path style="fill:#A02724;" d="M376.342,175.535c0,0-1.658,2.553-3.134,3.647c0.689,0.967,2.21,0.898,2.21,0.898L376.342,175.535
				z"/>
			<path style="fill:#263238;" d="M379.034,172.394c0.07,0,0.141-0.025,0.196-0.077c0.117-0.108,0.124-0.291,0.016-0.407
				c-1.082-1.171-2.396-0.963-2.452-0.954c-0.157,0.027-0.262,0.176-0.236,0.332c0.027,0.157,0.178,0.261,0.331,0.236l0,0
				c0.043-0.007,1.07-0.158,1.934,0.777C378.879,172.363,378.956,172.394,379.034,172.394z"/>
			<path style="fill:#B55B52;" d="M390.432,181.473c-0.873,4.452-1.744,12.61,1.371,15.58c0,0-1.217,4.516-9.49,4.516
				c-9.097,0-4.347-4.516-4.347-4.516c4.965-1.186,4.836-4.869,3.972-8.328L390.432,181.473z"/>
			<path style="fill:#B55B52;" d="M392.981,176.949c-1.564,5.834-2.182,9.328-5.782,11.754c-5.415,3.649-12.158-0.539-12.368-6.722
				c-0.19-5.566,2.399-14.171,8.659-15.347C389.658,165.475,394.544,171.115,392.981,176.949z"/>
			<path style="fill:#263238;" d="M380.549,179.373c0,0,1.299,7.991,9.174,7.746c0,0,9.505-5.347,8.519-15.454
				c0,0,3.031-3.947,1.2-5.582c-1.167-1.042-2.546,1.197-2.546,1.197s0.667-5.793-1.708-6.418s-2.614,3.089-2.614,3.089
				s-0.549-5.857-2.991-6.171c-2.823-0.363-1.999,3.794-1.999,3.794s-0.927-4.885-3.683-4.871c-2.302,0.012-1.188,4.634-1.188,4.634
				s-2.181-4.927-4.271-3.795c-2.091,1.132,0.588,4.745,0.588,4.745s-3.984-2.808-4.797-0.87s3.252,4.316,3.252,4.316
				s-3.893,0.449-3.58,2.324c0.313,1.875,4.887,1.597,4.887,1.597s-1.771,4.251,2.166,6.251L380.549,179.373z"/>
			<path style="fill:#B55B52;" d="M383.055,177.193c-0.397,1.531-1.403,2.848-2.456,3.631c-1.584,1.178-2.767,0.019-2.654-1.774
				c0.101-1.613,1.047-4.17,2.794-4.648C382.461,173.932,383.509,175.442,383.055,177.193z"/>
			<path style="opacity:0.2;" d="M380.187,187.801c-1.412-0.249-2.077,0.072-4.167-1.78c1.338,2.247,3.654,3.764,6.19,3.997
				C382.136,189.795,381.515,188.035,380.187,187.801z"/>
		</g>
		<g>
			<path style="fill:#B55B52;" d="M406.177,202.65c1.575,3.101,2.996,6.169,4.353,9.323c1.352,3.144,2.615,6.337,3.774,9.594
				c0.594,1.621,1.122,3.28,1.64,4.952l0.097,0.313l0.049,0.158l0.07,0.269c0.087,0.362,0.182,0.713,0.223,1.094
				c0.113,0.742,0.123,1.517,0.025,2.255c-0.175,1.493-0.723,2.808-1.381,3.856c-1.355,2.1-3.017,3.389-4.671,4.423
				c-0.839,0.504-1.678,0.954-2.549,1.317c-0.882,0.375-1.695,0.693-2.691,0.971l-1.894-4.035c1.12-0.936,2.341-2.031,3.292-3.093
				c0.972-1.055,1.751-2.195,2.013-3.064c0.147-0.429,0.152-0.746,0.083-0.938c-0.028-0.101-0.067-0.175-0.113-0.259
				c-0.008-0.039-0.057-0.087-0.077-0.132l-0.073-0.175l-0.113-0.283c-0.595-1.508-1.232-3.011-1.876-4.522
				c-1.298-3.016-2.663-6.029-4.055-9.038l-4.189-8.994L406.177,202.65z"/>
			<path style="fill:#B55B52;" d="M405.274,236.621l-4.353-1.132l-0.249,7.028c0,0,3.405,0.506,5.49-1.577L405.274,236.621z"/>
		</g>
		<polygon style="fill:#FFC3BD;" points="394.753,234.305 395.735,240.474 400.671,242.517 400.921,235.489 		"/>
		<g>
			<path style="fill:#B55B52;" d="M368.258,199.667c-1.713-0.017-3.664-0.045-5.502-0.136c-1.863-0.103-3.72-0.212-5.563-0.384
				c-1.835-0.176-3.67-0.376-5.448-0.677c-0.907-0.117-1.763-0.32-2.649-0.473c-0.845-0.209-1.73-0.381-2.542-0.624l-1.236-0.347
				l-1.17-0.411l-0.338-0.118c-0.067-0.196-0.132-0.424-0.175-0.684c-0.116-0.664-0.201-1.464-0.218-2.303
				c-0.06-3.387,0.856-9.553,1.365-13.251l-3.832-0.802c-1.879,3.764-4.199,9.864-4.947,14.301c-0.17,1.116-0.306,2.283-0.27,3.575
				c0.049,1.291,0.162,2.728,0.939,4.49c0.401,0.871,0.617,0.978,1.58,1.79c0.46,0.403,1.052,0.763,1.561,1.013l0.775,0.355
				c0.517,0.232,1.037,0.478,1.556,0.695l1.555,0.586c4.159,1.491,8.288,2.25,12.407,2.81c2.059,0.233,4.113,0.444,6.169,0.527
				c2.081,0.086,4.053,0.156,6.263,0.066L368.258,199.667z"/>
			<g>
				<path style="fill:#B55B52;" d="M344.692,180.637l3.257-6.879l-6.392-1.851c0,0-2.953,4.489-0.386,8.102L344.692,180.637z"/>
				<polygon style="fill:#B55B52;" points="347.556,170.658 342.603,168.107 341.557,171.907 347.949,173.758 				"/>
			</g>
		</g>
		<path style="fill:#407BFF;" d="M377.381,197.52c0,0,1.445-1.499,0.413-3.213c0,0,21.093-1.747,15.593,3.832L377.381,197.52z"/>
		<path style="opacity:0.3;fill:#FFFFFF;" d="M377.381,197.52c0,0,1.445-1.499,0.413-3.213c0,0,21.093-1.747,15.593,3.832
			L377.381,197.52z"/>
		<path style="fill:#407BFF;" d="M400.958,223.229c0,0,7.283-3.1,11.981-8.931c0,0-4.541-14.488-9.709-15.435
			C398.062,197.916,400.958,223.229,400.958,223.229z"/>
		<path style="opacity:0.5;fill:#FFFFFF;" d="M400.958,223.229c0,0,7.283-3.1,11.981-8.931c0,0-4.541-14.488-9.709-15.435
			C398.062,197.916,400.958,223.229,400.958,223.229z"/>
		<path style="opacity:0.2;" d="M400.153,209.146c-0.042,6.658,0.805,14.083,0.805,14.083s1.544-0.662,3.66-1.934
			C403.575,216.799,401.572,212.132,400.153,209.146z"/>
		<g>
			<path style="fill:#407BFF;" d="M404.595,199.471c-4.111,20.083-3.539,38.128-2.957,48.955c0.188,3.498-2.341,6.609-5.744,7.101
				c-8.69,1.258-17.637,0.41-22.985-0.367c-2.904-0.422-5.23-2.757-5.691-5.723c-4.781-30.767-2.335-43.052-0.764-49.043
				c0.544-2.074,2.418-3.511,4.562-3.514C379.454,196.865,401.247,197.064,404.595,199.471z"/>
			<path style="opacity:0.5;fill:#FFFFFF;" d="M404.595,199.471c-4.111,20.083-3.539,38.128-2.957,48.955
				c0.188,3.498-2.341,6.609-5.744,7.101c-8.69,1.258-17.637,0.41-22.985-0.367c-2.904-0.422-5.23-2.757-5.691-5.723
				c-4.781-30.767-2.335-43.052-0.764-49.043c0.544-2.074,2.418-3.511,4.562-3.514C379.454,196.865,401.247,197.064,404.595,199.471
				z"/>
		</g>
		<path style="opacity:0.2;" d="M365.722,203.658c-0.779,4.005-1.42,8.946-1.331,17.857c6.198-2.793,7.688-12.369,7.688-12.369
			l-2.785-6.34L365.722,203.658z"/>
		<g>
			<path style="fill:#407BFF;" d="M370.687,196.899c-2.825-1.576-15.899,2-15.899,2v14.784c0,0,13.099,3.302,15.849-1.207
				C373.388,207.967,374.148,198.831,370.687,196.899z"/>
			<path style="opacity:0.5;fill:#FFFFFF;" d="M370.687,196.899c-2.825-1.576-15.899,2-15.899,2v14.784
				c0,0,13.099,3.302,15.849-1.207C373.388,207.967,374.148,198.831,370.687,196.899z"/>
		</g>
		<polygon style="fill:#B55B52;" points="383.979,406.146 377.893,406.146 377.287,392.053 383.373,392.053 		"/>
		<polygon style="fill:#B55B52;" points="428.647,403.329 422.699,404.616 416.727,391.49 422.675,390.202 		"/>
		<g>
			<polygon style="opacity:0.2;" points="377.289,392.057 377.6,399.321 383.688,399.321 383.377,392.057 			"/>
			<polygon style="opacity:0.2;" points="422.678,390.205 416.727,391.493 419.809,398.259 425.759,396.971 			"/>
		</g>
		<path style="fill:#263238;" d="M379.624,251.345c0,0,8.807,58.482,12.599,75.906c4.152,19.08,24.515,70.234,24.515,70.234
			l10.894-2.359c0,0-5.856-16.964-11.705-42.686c-1.95-8.574-5.576-16.791-6.447-23.46c-1.459-11.171-3.294-41.652-4.752-56.176
			c-1.216-12.116-4.1-21.46-4.1-21.46H379.624z"/>
		<path style="fill:#263238;" d="M414.13,393.848c-0.046,0.01,2.03,3.94,2.03,3.94l12.257-2.654l-1.033-3.685L414.13,393.848z"/>
		<path style="opacity:0.5;" d="M383.989,267.915c7.986,1.566,9.042,43.321,8.081,58.638c-2.303-10.827-7.575-43.635-9.878-58.422
			C382.722,267.866,383.318,267.783,383.989,267.915z"/>
		<path style="fill:#263238;" d="M368.078,251.345c0,0,1.063,57.475,1.725,76.034c0.689,19.304,5.53,70.536,5.53,70.536h10.31
			c0,0,3.078-17.156,3.337-41.601c0.119-11.24-1.744-21.49-1.6-27.462c0.246-10.151,1.037-38.113,2.695-51.756
			c1.718-14.134,1.4-25.751,1.4-25.751H368.078z"/>
		<path style="fill:#263238;" d="M373.349,393.808c-0.048,0,0.582,4.28,0.582,4.28h12.541l0.339-3.82L373.349,393.808z"/>
		<path style="fill:#263238;" d="M378.045,403.774l7.003-0.009c0.303,0.005,0.525,0.22,0.534,0.518l1.22,6.732
			c0.021,0.583-0.453,1.156-1.058,1.28c-0.078,0.016-0.155,0.024-0.232,0.023c-2.888-0.1-5.434-0.304-9.043-0.36
			c-4.258-0.072-3.276,0.458-8.296,0.443c-3.024-0.012-2.911-3.46-1.599-3.607c5.996-0.639,6.947-2.401,9.611-4.464
			C376.754,403.935,377.416,403.737,378.045,403.774z"/>
		<path style="fill:#263238;" d="M421.569,401.813l6.844-1.483c0.297-0.059,0.56,0.105,0.631,0.394l2.61,6.324
			c0.143,0.566-0.199,1.226-0.765,1.474c-0.073,0.032-0.147,0.056-0.222,0.072c-2.845,0.51-5.376,0.847-8.916,1.551
			c-4.177,0.826-3.107,1.137-8.016,2.18c-2.958,0.625-3.574-2.77-2.323-3.19c5.727-1.887,6.285-3.809,8.456-6.387
			C420.341,402.242,420.946,401.909,421.569,401.813z"/>
	</g>
</g>
<g id="Character_2_1_">
	<g>
		<g>
			<g>
				<path style="fill:#FFB573;" d="M288.901,227.804l4.081-4.686c0,0,0.716-3.133,1.177-4.093c0.481-1.001,1.515-3.261,2.564-3.625
					c1.132-0.393,3.821,0.443,4.599,1.355c1.018,1.194,1.498,4.819,0.799,6.223c-0.743,1.493-5.792,3.309-5.792,3.309l-3.97,4.952
					L288.901,227.804z"/>
				<polygon style="fill:#407BFF;" points="288.02,227.519 291.586,223.632 296.357,227.696 292.49,232.261 				"/>
				<polygon style="opacity:0.8;fill:#FFFFFF;" points="288.02,227.519 291.586,223.632 296.357,227.696 292.49,232.261 				"/>
			</g>
			<path style="fill:#263238;" d="M262.467,204.714c0,0,3.721,4.234,9.097,18.076c5.376,13.842,11.334,9.805,17.876,2.342
				l5.375,4.894c0,0-10.05,12.522-16.375,12.522c-7.042,0-13.875-10.915-15.25-18.54S262.467,204.714,262.467,204.714z"/>
			<path style="opacity:0.4;" d="M263.783,212.722l-2-1.672l-0.935,5.325c0.132,1.545,0.313,3.051,0.56,4.425
				c0.784,4.348,3.729,10.049,6.892,14.794C267.145,225.053,263.783,212.722,263.783,212.722z"/>
			<path style="fill:#263238;" d="M235.315,172.258c0,0-2.841-0.043-2.468,2.188c0.472,2.823,10.093,1.993,10.093,1.993
				l-2.563-3.368L235.315,172.258z"/>
			<polygon style="fill:#FFB573;" points="274.989,391.205 275.964,404.312 270.141,404.312 267.28,391.67 			"/>
			<path style="fill:#263238;" d="M276.516,403.595l-7.148-0.009c-0.309,0.005-0.536,0.225-0.545,0.528l-1.245,6.871
				c-0.021,0.595,0.462,1.18,1.079,1.306c0.079,0.016,0.159,0.024,0.237,0.024c2.948-0.102,5.547-0.31,9.23-0.368
				c4.346-0.073,3.344,0.467,8.467,0.453c3.086-0.012,2.971-3.531,1.632-3.682c-6.12-0.652-7.09-2.451-9.81-4.556
				C277.833,403.76,277.158,403.558,276.516,403.595z"/>
			<path style="fill:#407BFF;" d="M277.161,401.534l-9.15,0.446c0,0-9.224-32.809-10.933-52.754
				c-0.117-1.369-0.202-2.685-0.244-3.938c-0.18-5.817-0.796-11.623-2.017-17.312l-0.424-1.985l-5.031-23.49v-0.011l-0.955-4.479
				c0,0-5.711-9.564-5.498-24.105c0.053-3.683,0.488-7.706,1.496-11.963c0.032-0.106,0.053-0.212,0.074-0.329l21.961,0.637
				l0.839,10.859L277.161,401.534z"/>
			<path style="opacity:0.2;" d="M251.571,312.796c3.036-15.257,1.517-33.357,1.517-33.357l-4.493,1.801l-3.031,8.422
				c0,0,0.009,0.675,0.033,1.798c1.396,4.175,2.812,6.554,2.812,6.554L251.571,312.796z"/>
			<polygon style="fill:#FFB573;" points="233.164,391.205 231.252,404.312 225.429,404.312 225.455,391.67 			"/>
			<path style="fill:#263238;" d="M231.74,403.595l-7.148-0.009c-0.309,0.005-0.536,0.225-0.545,0.528l-1.245,6.871
				c-0.021,0.595,0.462,1.18,1.08,1.306c0.079,0.016,0.159,0.024,0.237,0.024c2.948-0.102,5.547-0.31,9.23-0.368
				c4.346-0.073,3.344,0.467,8.467,0.453c3.086-0.012,2.971-3.531,1.632-3.682c-6.12-0.652-7.09-2.451-9.809-4.556
				C233.058,403.76,232.382,403.558,231.74,403.595z"/>
			<path style="fill:#407BFF;" d="M257.864,262.251l-1.688,7.971l-6.815,32.279l-1.114,5.297l-15.189,93.96l-9.118-0.393
				c0,0-2.006-30.294,0.733-50.461c0.212-1.592,0.467-3.121,0.743-4.564c1.295-6.74,2.027-13.565,1.953-20.422l-0.021-1.974
				l-0.276-25.931c0,0-1.21-12.599,0.998-26.207c0.552-3.397,1.306-6.846,2.356-10.19l13.979,0.329L257.864,262.251z"/>
			<path style="opacity:0.2;" d="M267.765,280.059l-8.109,0.713c-2.229,0.456-4.437-0.902-5.042-3.11l-0.265-0.966l-1.698-6.273
				l-2.017,7.271c-0.616,2.229-2.781,3.651-5.074,3.322l-4.479-0.637l-13.86-1.924c0.267-6.059,2.154-13.498,3.205-16.842
				l13.979,0.329c0.032-0.106,0.053-0.212,0.074-0.329l21.961,0.637L267.765,280.059z"/>
			<path style="fill:#263238;" d="M229.893,245.931l-3.774,28.834l19.594,2.995c2.153,0.306,4.199-1.034,4.78-3.13l1.898-6.855
				l1.852,6.828c0.563,2.076,2.642,3.357,4.749,2.926l9.516-1.638l-2.495-33.406c0,0,1.426-21.386-1.917-35.08
				c-0.636-2.607-3.013-4.423-5.624-5.046c-5.94-1.418-18.7-3.199-33.189,2.515c-1.346,0.531-2.173,1.904-1.994,3.341
				L229.893,245.931z"/>
			<g>
				<circle style="opacity:0.5;" cx="251.006" cy="233.713" r="0.883"/>
				<circle style="opacity:0.5;" cx="251.874" cy="245.931" r="0.883"/>
				<circle style="opacity:0.5;" cx="252.23" cy="257.998" r="0.883"/>
			</g>
			<path style="fill:#263238;" d="M237.691,200.566c0,0,4.691-2.035,10.564-0.734l2.168,1.235l0.761,2.415l-2.746,2.152l-6.484,0.66
				l-5.359-2.217l0.298-2.382L237.691,200.566z"/>
			<path style="fill:#FFB573;" d="M237.158,201.813c1.437-1.904,2.094-3.825,1.592-6.137l9.706-7.865
				c-1.37,13.124-0.699,10.736,1.255,14.509c0,0-1.354,4.375-8.928,3.015C235.865,204.453,237.158,201.813,237.158,201.813z"/>
			<path style="opacity:0.2;" d="M238.749,195.676l9.706-7.865c-0.25,1.904-0.445,3.489-0.58,4.865
				c-1.029,2.09-3.67,5.899-9.159,6.057C238.957,197.775,238.987,196.77,238.749,195.676z"/>
			<path style="fill:#FFB573;" d="M250.088,181.606c-1.37,6.271-1.86,10.006-5.563,12.751c-5.564,4.141-12.926,0.007-13.447-6.527
				c-0.471-5.926,1.859-15.155,8.444-16.706c4.695-1.132,9.418,1.757,10.55,6.452C250.391,178.899,250.396,180.279,250.088,181.606z
				"/>
			<path style="fill:#263238;" d="M239.902,181.892c-0.082,0.518-0.417,0.895-0.755,0.84c-0.338-0.055-0.543-0.512-0.462-1.03
				c0.082-0.518,0.417-0.887,0.755-0.833C239.779,180.924,239.984,181.381,239.902,181.892z"/>
			<path style="fill:#263238;" d="M234.082,180.987c-0.082,0.511-0.417,0.888-0.755,0.833c-0.338-0.055-0.543-0.512-0.461-1.023
				c0.082-0.511,0.417-0.895,0.755-0.84C233.958,180.012,234.163,180.469,234.082,180.987z"/>
			<path style="fill:#ED893E;" d="M236.211,181.519c-0.861,1.477-1.922,2.829-3.153,4.016c0.802,0.995,2.394,0.851,2.394,0.851
				L236.211,181.519z"/>
			<path style="fill:#263238;" d="M242.28,179.789c0.052,0.008,0.105,0.005,0.156-0.009c0.144-0.085,0.199-0.267,0.125-0.417
				c-0.451-0.876-1.294-1.482-2.268-1.632c-0.169-0.015-0.319,0.111-0.334,0.28c-0.015,0.169,0.11,0.319,0.28,0.333l0,0
				c0.769,0.126,1.432,0.613,1.78,1.311C242.078,179.742,242.176,179.792,242.28,179.789z"/>
			<path style="fill:#263238;" d="M232.183,178.285c0.104,0.004,0.203-0.047,0.26-0.134c0.423-0.648,1.128-1.056,1.901-1.1
				c0.169,0.005,0.309-0.128,0.314-0.297c0.005-0.169-0.129-0.309-0.297-0.314c-0.988,0.034-1.899,0.545-2.443,1.37
				c-0.095,0.133-0.064,0.319,0.069,0.414c0.002,0.002,0.005,0.004,0.007,0.005C232.049,178.269,232.116,178.289,232.183,178.285z"
				/>
			<g>
				<path style="fill:#263238;" d="M233.464,188.461c0,0,1.657-0.294,6.237-0.17c-0.605,1.231-1.668,2.214-4.018,2.135
					C233.334,190.347,233.464,188.461,233.464,188.461z"/>
				<path style="fill:#FF5652;" d="M236.83,189.479c-0.898-0.076-1.798,0.108-2.594,0.53c0.432,0.276,0.935,0.419,1.447,0.412
					c0.896,0.077,1.795-0.107,2.588-0.529C237.842,189.615,237.34,189.472,236.83,189.479z"/>
				<path style="fill:#FFFFFF;" d="M233.678,188.431c0.083,0.326,0.348,0.574,0.679,0.637c1.36,0.036,2.721-0.031,4.071-0.201
					c0.429-0.011,0.826-0.228,1.069-0.581C237.556,188.201,235.611,188.249,233.678,188.431z"/>
			</g>
			<g>
				<g>
					<polygon style="fill:#407BFF;" points="237.141,208.743 239.721,217.146 245.718,225.814 250.639,230.931 252.482,223.428 
						251.889,207.769 251.795,204.397 250.417,202.458 248.229,204.376 246.365,205.095 243.637,205.118 236.469,202.939 					"/>
					<polygon style="opacity:0.8;fill:#407BFF;" points="237.141,208.743 239.721,217.146 245.718,225.814 250.639,230.931 
						252.482,223.428 251.889,207.769 251.795,204.397 250.417,202.458 248.229,204.376 246.365,205.095 243.637,205.118 
						236.469,202.939 					"/>
					<polygon style="opacity:0.5;fill:#FFFFFF;" points="237.141,208.743 239.721,217.146 245.718,225.814 250.639,230.931 
						252.482,223.428 251.889,207.769 251.795,204.397 250.417,202.458 248.229,204.376 246.365,205.095 243.637,205.118 
						236.469,202.939 					"/>
				</g>
				<path style="fill:#407BFF;" d="M242.927,207.769c0,0,0.871,1.926,2.791,3.567c0,0-1.202,8.566,0.646,14.566l4.274,5.029
					l1.251-6.22c0,0-1.914-9.953-4.481-13.718c0,0,1.069-2.023,1.422-4.099l-1.533-1.258c0,0-2.128,1.52-3.407,0.461
					L242.927,207.769z"/>
				<g>
					<path style="fill:#407BFF;" d="M236.972,201.342c0,0,3.955,3.371,7.929,3.371c3.974,0,4.414-4.146,4.414-4.146l1.675,1.811
						c0,0,0.266,2.945-1.366,6.045l-4.146-2.798l-2.81,4.045c0,0-4.395-2.117-6.549-5.911L236.972,201.342z"/>
					<path style="opacity:0.8;fill:#FFFFFF;" d="M236.972,201.342c0,0,3.955,3.371,7.929,3.371c3.974,0,4.414-4.146,4.414-4.146
						l1.675,1.811c0,0,0.266,2.945-1.366,6.045l-4.146-2.798l-2.81,4.045c0,0-4.395-2.117-6.549-5.911L236.972,201.342z"/>
				</g>
				<g>
					<path style="fill:#263238;" d="M237.691,200.566c0,0-3.244,9.999,12.725,29.07c0,0,2.867-23.364-2.161-29.804l3.494,1.381
						l3.636,5.496l-2.665,1.712l3.296,1.469c0,0-0.469,7.572-5.107,22.135c0,0-10.498-8.117-17.361-19.075l3.195-2.547l-4.27-0.674
						l1.898-7.587L237.691,200.566z"/>
					<path style="opacity:0.3;" d="M237.691,200.566c0,0-3.244,9.999,12.725,29.07c0,0,2.867-23.364-2.161-29.804l3.494,1.381
						l3.636,5.496l-2.665,1.712l3.296,1.469c0,0-0.469,7.572-5.107,22.135c0,0-10.498-8.117-17.361-19.075l3.195-2.547l-4.27-0.674
						l1.898-7.587L237.691,200.566z"/>
				</g>
			</g>
			<path style="fill:#263238;" d="M247.002,187.008c0,0-2.563,1.319-0.875-3.653c1.688-4.972-0.563-6.597-0.875-8.972
				c0,0-14.563,0.5-13.875-5.938c0.697-6.525,9.438-1.313,9.438-1.313s-0.663-2.923,1.779-3.25c3.265-0.438,6.245,5.875,10.296,7.75
				c4.051,1.875,1.801,8.16,1.801,8.16s1.243,4.187-6.166,12.198c-0.26,0.281-0.734,0.134-0.792-0.244L247.002,187.008z"/>
			<path style="fill:#263238;" d="M242.74,180.994c-0.163-0.119-0.833-0.444-1.208-0.622c-0.644-0.503-1.805-0.791-2.727-0.851
				c-0.929-0.063-1.658,0.091-1.999,0.416c-0.046,0.043-0.07,0.112-0.102,0.172c-0.121-0.097-0.25-0.149-0.408-0.171
				c-0.178-0.022-0.33,0.018-0.441,0.064c-0.032-0.076-0.046-0.17-0.094-0.229c-0.534-0.658-1.924-1.032-2.99-1.1
				c-0.93-0.062-1.658,0.092-1.998,0.416c-0.156,0.148-0.232,0.393-0.227,0.728c0.012,0.847,0.561,2.192,1.089,2.666
				c0.441,0.396,1.433,0.645,2.243,0.645c0.406,0,0.766-0.063,0.989-0.2c0.444-0.273,0.935-1.19,1.073-2.001
				c0.028-0.164,0.015-0.296,0.012-0.436c0.063-0.027,0.183-0.072,0.281-0.055c0.095,0.015,0.249,0.135,0.349,0.256
				c0.022,0.848,0.564,2.171,1.086,2.64c0.441,0.396,1.433,0.645,2.243,0.645c0.405,0,0.765-0.063,0.988-0.199l0-0.001
				c0.444-0.274,0.935-1.191,1.072-2.002c0.04-0.237,0.042-0.445,0.018-0.631c0.186,0.092,0.362,0.187,0.457,0.256
				c1.396,1.012,4.993,4.867,5.029,4.906l0.366-0.341C247.693,185.803,244.175,182.034,242.74,180.994z M235.642,180.876
				c-0.123,0.726-0.56,1.565-0.934,1.796c-0.547,0.34-2.32,0.084-2.873-0.413c-0.422-0.379-0.978-1.633-0.989-2.447
				c-0.003-0.244,0.043-0.418,0.134-0.505c0.235-0.223,0.746-0.347,1.404-0.347c0.118,0,0.242,0.004,0.369,0.012
				c1.206,0.078,2.373,0.494,2.776,0.991C235.671,180.14,235.712,180.464,235.642,180.876z M241.675,181.723
				c-0.121,0.713-0.566,1.569-0.934,1.797c-0.549,0.339-2.321,0.083-2.874-0.413c-0.422-0.379-0.977-1.633-0.989-2.447
				c-0.003-0.244,0.043-0.419,0.134-0.505c0.234-0.223,0.746-0.347,1.403-0.347c0.119,0,0.242,0.004,0.37,0.012
				c1.206,0.078,2.373,0.494,2.776,0.991C241.704,180.987,241.745,181.311,241.675,181.723z"/>
			<path style="fill:#FFB573;" d="M252.26,187.991c-1.062,1.212-2.559,1.956-4.166,2.073c-2.136,0.124-2.759-1.886-1.791-3.669
				c0.867-1.598,3.028-3.599,4.989-2.894C253.253,184.205,253.549,186.48,252.26,187.991z"/>
			<path style="opacity:0.4;" d="M223.715,211l4.158,23.168l0.487-0.604c2.276-11.878-0.901-23.253-0.901-23.253l-1.264,0.674
				L223.715,211z"/>
			<g>
				<path style="fill:#FFB573;" d="M197.445,228.605l-4.838-3.899c0,0-1.254-2.959-1.875-3.823c-0.648-0.901-2.063-2.945-3.159-3.12
					c-1.184-0.189-3.685,1.105-4.291,2.139c-0.793,1.353-0.631,5.007,0.303,6.267c0.993,1.34,6.282,2.244,6.282,2.244l4.775,4.181
					L197.445,228.605z"/>
				<polygon style="fill:#407BFF;" points="198.263,228.169 194.072,224.966 190.086,229.803 194.692,233.62 				"/>
				<polygon style="opacity:0.8;fill:#FFFFFF;" points="198.263,228.169 194.072,224.966 190.086,229.803 194.692,233.62 				"/>
			</g>
			<path style="fill:#263238;" d="M224.428,205.861c-0.377-0.448-1.712,0.145-2.049,0.624c-1.113,1.582-7.349,16.838-9.797,22.87
				c-0.573,1.412-2.109,2.169-3.577,1.759c-2.991-0.835-8.034-2.406-12.205-4.509l-5.375,4.893c0,0,13.991,11.165,21.686,11.165
				c7.042,0,13.632-14.92,15.007-22.545C229.193,214.163,227.28,209.247,224.428,205.861z"/>
		</g>
		<g>
			<path style="fill:#407BFF;" d="M326.93,207.675l-24.168-2.264c0,0-6.42,10.057-9.15,32.948l24.257,2.272
				C320.318,220.685,325.683,210.071,326.93,207.675z"/>
			<path style="opacity:0.4;fill:#FFFFFF;" d="M326.93,207.675l-24.168-2.264c0,0-6.42,10.057-9.15,32.948l24.257,2.272
				C320.318,220.685,325.683,210.071,326.93,207.675z"/>
			<path style="fill:#407BFF;" d="M326.93,207.675l-24.168-2.264c0,0-5.545,9.182-8.275,32.074l24.257,2.272
				C321.193,219.81,325.683,210.071,326.93,207.675z"/>
			<path style="opacity:0.7;fill:#FFFFFF;" d="M326.93,207.675l-24.168-2.264c0,0-5.545,9.182-8.275,32.074l24.257,2.272
				C321.193,219.81,325.683,210.071,326.93,207.675z"/>
			<path style="fill:#407BFF;" d="M305.943,205.616c-0.368-0.532-1.105-0.665-1.637-0.297l-2.369,1.641
				c-0.532,0.368-0.665,1.105-0.297,1.637c0.368,0.532,1.105,0.665,1.637,0.297c0.091-0.063,0.113-0.181,0.049-0.273
				c-0.063-0.091-0.182-0.113-0.273-0.049c-0.355,0.246-0.846,0.157-1.091-0.198c-0.246-0.354-0.156-0.846,0.198-1.091l2.369-1.641
				c0.354-0.246,0.845-0.157,1.091,0.198c0.246,0.354,0.156,0.845-0.198,1.091l-0.8,0.555l-0.457,0.316l-0.097,0.067
				c-0.204,0.141-0.481,0.087-0.618-0.112c-0.141-0.204-0.087-0.481,0.112-0.618l1.09-0.755c0.091-0.063,0.113-0.182,0.049-0.273
				c-0.063-0.091-0.181-0.113-0.273-0.05l-1.09,0.755c-0.385,0.259-0.481,0.786-0.22,1.162c0.26,0.376,0.788,0.472,1.164,0.211
				l0.097-0.067l0.457-0.316l0.806-0.558C306.177,206.884,306.311,206.148,305.943,205.616z"/>
		</g>
	</g>
</g>
<g id="Character_1">
	<g>
		<path style="fill:#263238;" d="M97.184,189.373c0,0,2.828-1.879,1.463-7.482c0,0,4.438-1.182,5.161-4.453
			c0,0,0.8,2.836,2.397,2.523c1.597-0.313,0-3.053,0-3.053s2.521,2.517,3.807,2.299c1.286-0.219,0-2.299,0-2.299
			s1.12,2.42,2.51,2.013c1.827-0.535-1.857-4.346-1.857-4.346s2.651,4.196,3.417,3.188c0.847-1.114-4.725-6.954-11.956-5.982
			c0,0-8.911-1.326-11.298,7.691c0,0-6.896,4.294-3.448,10.855c0,0-5.658,6.531-2.21,9.95c0,0-5.668,9.679,1.149,9.479
			c6.817-0.2,26.584-1.369,29.338-3.273c2.754-1.904-0.871-6.472-0.871-6.472s1.23-1.355,0.925-4.538
			c-0.306-3.183-2.062-4.509-2.062-4.509s2.252-1.688,1.049-4.454c-2.859-6.572-14.057-7.049-14.057-7.049
			S101.506,190.346,97.184,189.373z"/>
		<g>
			<g>
				<g>
					<path style="fill:#CE7A63;" d="M150.143,210.467c0.76-3.199,0.963-5.545,0.963-5.545l1.4-3.269c0,0,2.155-3.865,1.539-5.025
						c-0.74-1.392-4.568-2.436-6.03-1.846c-1.291,0.521-2.702,4.869-2.702,4.869l0.853,4.434c0,0-0.246,2.087-1.042,4.777
						L150.143,210.467z"/>
					<path style="fill:#407BFF;" d="M150.973,208.991c-1.886,7.939-5.492,19.551-19.649,15.197
						c-7.291-2.242-18.346-8.248-15.204-15.681c3.142-7.433,4.332,3.918,16.727,7.91c9.38,3.021,10.33-3.691,12.009-9.367
						L150.973,208.991z"/>
				</g>
				<path style="fill:#407BFF;" d="M98.692,201.337c0,0,3.672-1.104,9.01,0.546c0,0,1.726,4.184-2.002,4.368
					c-3.728,0.184-7.053-3.591-7.053-3.591L98.692,201.337z"/>
				<g>
					<path style="fill:#CE7A63;" d="M97.804,203.757c0,0,2.382-0.09,2.363-3.036c-0.018-2.945-0.508-6.526-0.508-6.526l7.076,0.627
						c0,0-0.946,8.694,2.291,9.138C109.026,203.959,106.198,208.293,97.804,203.757z"/>
					<path style="opacity:0.1;" d="M106.735,194.821l-7.076-0.627c0,0,0.179,1.31,0.324,2.995c1.108,1.464,3.181,3.225,6.931,3.836
						C106.355,198.35,106.735,194.821,106.735,194.821z"/>
					<path style="fill:#CE7A63;" d="M95.126,184.699c0.942,6.34,1.201,9.044,4.7,12.036c5.265,4.505,12.843,1.966,13.819-4.527
						c0.878-5.844-0.805-15.224-7.258-17.225c-4.603-1.453-9.513,1.1-10.966,5.704C95.012,181.982,94.911,183.356,95.126,184.699z"
						/>
					<path style="fill:#BA4D3C;" d="M109.322,186.166c0.563,1.145,1.28,2.207,2.133,3.156c-0.5,0.431-1.165,0.618-1.816,0.512
						L109.322,186.166z"/>
					<path style="fill:#263238;" d="M102.348,183.278c-0.044-0.007-0.086-0.023-0.122-0.049c-0.112-0.085-0.134-0.244-0.049-0.356
						c0.001-0.001,0.002-0.003,0.003-0.004c0.567-0.785,1.48-1.244,2.447-1.231c0.138,0.015,0.24,0.135,0.233,0.274
						c-0.011,0.137-0.129,0.241-0.267,0.233c-0.799,0.002-1.548,0.388-2.015,1.037C102.524,183.252,102.437,183.288,102.348,183.278
						z"/>
					<path style="fill:#263238;" d="M113.356,182.418c-0.044-0.007-0.086-0.023-0.123-0.049c-0.635-0.478-1.461-0.624-2.221-0.391
						c-0.13,0.053-0.278-0.01-0.331-0.14c-0.001-0.001-0.001-0.002-0.001-0.003c-0.048-0.133,0.018-0.28,0.15-0.331
						c0.921-0.295,1.928-0.127,2.704,0.45c0.117,0.077,0.15,0.235,0.072,0.352C113.552,182.39,113.454,182.433,113.356,182.418
						L113.356,182.418z"/>
					<g>
						<path style="fill:#263238;" d="M105.584,185.624c0.043,0.516,0.355,0.911,0.699,0.885c0.344-0.027,0.576-0.469,0.527-0.993
							c-0.05-0.523-0.355-0.911-0.691-0.884C105.782,184.659,105.542,185.101,105.584,185.624z"/>
						<path style="fill:#263238;" d="M111.451,185.12c0.043,0.516,0.355,0.911,0.692,0.884c0.336-0.027,0.576-0.469,0.534-0.992
							c-0.042-0.523-0.355-0.911-0.691-0.884C111.648,184.155,111.402,184.597,111.451,185.12z"/>
						<path style="fill:#263238;" d="M111.838,184.169l1.214-0.464C113.053,183.705,112.494,184.73,111.838,184.169z"/>
						<path style="fill:#263238;" d="M105.972,184.673l1.214-0.464C107.186,184.209,106.627,185.234,105.972,184.673z"/>
					</g>
					<path style="fill:#263238;" d="M108.408,192.859c0.3,0.001,0.599-0.025,0.894-0.078c0.085-0.014,0.143-0.094,0.129-0.179
						c0-0.002-0.001-0.003-0.001-0.005c-0.014-0.084-0.093-0.141-0.177-0.128c-1.322,0.259-2.688-0.123-3.684-1.029
						c-0.059-0.065-0.159-0.069-0.224-0.011c-0.065,0.059-0.069,0.159-0.011,0.224C106.164,192.436,107.266,192.869,108.408,192.859
						z"/>
				</g>
				<path style="fill:#CE7A63;" d="M127.009,306.964c-0.091,24.677-3.864,98.902-3.864,98.902h-7.033c0,0-4.131-30.148-3.702-56.652
					c0.155-9.591,1.003-16.919,1.091-22.61c0.159-10.264-7.679-45.423-7.679-45.423l21.256,2.598
					C127.079,283.777,127.03,301.143,127.009,306.964z"/>
				<path style="opacity:0.2;" d="M126.671,323.516c0.139-4.652,0.242-8.881,0.296-12.466l-15.373-0.701
					c0.986,5.845,1.744,11.276,1.886,14.827C113.48,325.177,119.226,326.131,126.671,323.516z"/>
				<path style="fill:#263238;" d="M122.697,404.003l-6.817-0.009c-0.295,0.005-0.507,0.214-0.511,0.504l-1.073,6.553
					c-0.01,0.568,0.461,1.125,1.052,1.246c0.076,0.015,0.152,0.023,0.226,0.023c2.81-0.097,5.285-0.295,8.797-0.351
					c4.144-0.07,3.197,0.445,8.084,0.432c2.943-0.011,2.774-3.368,1.495-3.511c-5.848-0.622-6.803-2.337-9.432-4.345
					C123.957,404.159,123.309,403.967,122.697,404.003z"/>
				<g>
					<path style="fill:#CE7A63;" d="M103.322,308.781l-13.331,97.422H83.11c0,0-2.319-28.388-0.571-52.736
						c0.65-9.052,2.459-17.075,3.416-22.718c1.999-11.785,1.642-49.906,1.642-49.906l18.37,2.986L103.322,308.781z"/>
					<path style="opacity:0.2;" d="M101.205,324.822l2.311-20.916l-15.793-0.72c-0.185,7.018-0.498,13.864-1.022,18.605
						C89.947,322.542,95.512,324.101,101.205,324.822z"/>
					<path style="fill:#263238;" d="M89.758,404.003l-6.817-0.009c-0.295,0.005-0.511,0.214-0.52,0.504l-1.188,6.553
						c-0.02,0.568,0.441,1.125,1.03,1.246c0.076,0.015,0.151,0.023,0.226,0.023c2.812-0.097,5.29-0.295,8.803-0.351
						c4.145-0.07,3.189,0.445,8.076,0.432c2.943-0.011,2.833-3.368,1.557-3.511c-5.837-0.622-6.762-2.337-9.356-4.345
						C91.015,404.159,90.371,403.967,89.758,404.003z"/>
				</g>
				<polygon style="fill:#407BFF;" points="96.669,203.294 98.646,202.661 103.808,206.251 105.7,206.251 107.292,205.546 
					109.137,203.703 110.978,204.456 112.298,209.528 112.298,211.075 112.857,212.941 114.482,219.22 115.71,227.32 
					115.71,233.417 115.255,239.97 113.526,236.557 108.657,227.456 104.607,215.989 103.424,211.985 100.33,208.734 
					97.918,204.613 				"/>
				<polygon style="fill:#407BFF;" points="96.669,203.294 98.646,202.661 103.808,206.251 105.7,206.251 107.292,205.546 
					109.137,203.703 110.978,204.456 112.298,209.528 112.298,211.075 112.857,212.941 114.482,219.22 115.71,227.32 
					115.71,233.417 115.255,239.97 113.526,236.557 108.657,227.456 104.607,215.989 103.424,211.985 100.33,208.734 
					97.918,204.613 				"/>
				<polygon style="opacity:0.5;fill:#FFFFFF;" points="96.669,203.294 98.646,202.661 103.808,206.251 105.7,206.251 
					107.292,205.546 109.137,203.703 110.978,204.456 112.298,209.528 112.298,211.075 112.857,212.941 114.482,219.22 
					115.71,227.32 115.71,233.417 115.255,239.97 113.526,236.557 108.657,227.456 104.607,215.989 103.424,211.985 100.33,208.734 
					97.918,204.613 				"/>
				<path style="fill:#263238;" d="M90.512,256.624c0,0-5.077,13.912-5.302,22.426c-0.214,8.095,0.662,17.517,0.527,25.111
					c-0.145,8.18-1.292,14.24-1.292,14.24s27.392,8.705,45.188,1.061c0,0,2.245-28.689-4.191-62.838l-12.586,0.677L90.512,256.624z"
					/>
				<path style="fill:#407BFF;" d="M87.789,208.344l6.171,32.392c0,0-3.551,9.668-6.827,23.183c0,0,19.018,6.319,24.572,3.549
					c1.777-0.886,3.822-6.962,3.822-6.962s3.198,6.433,5.324,6.962c1.749,0.436,6.553-3.003,6.553-3.003s-2.247-14.523-5.013-24.45
					l1.336-10.965c0,0,2.608-6.11-2.394-16.964l-1.44-4.385c-0.191-0.582-0.596-1.072-1.138-1.358
					c-1.457-0.769-4.715-2.292-9.164-3.232c0,0,6.963,16.579,5.325,32.83c0,0-6.826-24.093-17.73-33.281
					c0,0-4.047,0.279-7.788,2.422C88.245,205.742,87.602,207.032,87.789,208.344z"/>
				<g>
					<path style="fill:#407BFF;" d="M97.184,202.661l1.508-1.324c0,0,4.095,4.484,6.826,4.335c2.73-0.149,2.184-3.789,2.184-3.789
						l1.888,1.229l0.842,0.773l-0.203,4.849c0,0-2.391-2.801-3.802-2.392c-1.411,0.41-2.62,3.413-2.62,3.413
						S100.635,207.988,97.184,202.661z"/>
					<path style="opacity:0.8;fill:#FFFFFF;" d="M97.184,202.661l1.508-1.324c0,0,4.095,4.484,6.826,4.335
						c2.73-0.149,2.184-3.789,2.184-3.789l1.888,1.229l0.842,0.773l-0.203,4.849c0,0-2.391-2.801-3.802-2.392
						c-1.411,0.41-2.62,3.413-2.62,3.413S100.635,207.988,97.184,202.661z"/>
					<path style="fill:#407BFF;" d="M115.392,240.834c0,0,1.41-8.464,1.137-27.12l-3.672-2.002l2.307-0.637
						c0,0-2.121-4.799-3.988-7.588c-0.512-0.132-1.037-0.259-1.587-0.375c0,0,6.963,19.447,5.325,35.698
						c0,0-6.826-26.961-17.73-36.149c0,0-0.515,0.037-1.338,0.178c1.383,1.455,4.064,4.927,4.127,10.057h2.931l-2.391,2.184
						L115.392,240.834z"/>
					<path style="opacity:0.2;" d="M115.392,240.834c0,0,2.471-7.403,2.198-26.059l-4.733-3.063l3.368-0.637
						c0,0-3.182-4.799-5.049-7.588c-0.512-0.132-1.037-0.259-1.587-0.375c0,0,6.963,19.447,5.325,35.698
						c0,0-6.826-26.961-17.73-36.149c0,0-0.515,0.037-1.338,0.178c1.383,1.455,1.942,4.927,2.005,10.057h5.053l-3.452,4.306
						L115.392,240.834z"/>
				</g>
				<g>
					<path style="fill:#263238;" d="M109.881,253.719l15.52-0.401c0.592-0.015,1.109-0.509,1.156-1.102l1.887-23.867
						c0.047-0.593-0.395-1.062-0.986-1.047l-15.52,0.401c-0.592,0.015-1.109,0.509-1.156,1.102l-1.887,23.867
						C108.848,253.266,109.289,253.734,109.881,253.719z"/>
					<path style="fill:#263238;" d="M117.689,229.444l3.716-0.096c0.74-0.019,1.387-0.636,1.446-1.378l0.174-2.199l-6.395,0.165
						l-0.174,2.199C116.398,228.877,116.95,229.463,117.689,229.444z"/>
					<path style="opacity:0.7;fill:#FFFFFF;" d="M117.689,229.444l3.716-0.096c0.74-0.019,1.387-0.636,1.446-1.378l0.174-2.199
						l-6.395,0.165l-0.174,2.199C116.398,228.877,116.95,229.463,117.689,229.444z"/>
					<g>
						<path style="fill:#263238;" d="M111.225,227.799l0.731-0.019c-0.592,0.015-1.109,0.509-1.156,1.102l-1.887,23.868
							c-0.047,0.593,0.395,1.062,0.987,1.046l-0.731,0.019c-0.592,0.015-1.033-0.453-0.986-1.047l1.887-23.867
							C110.116,228.307,110.634,227.814,111.225,227.799z"/>
						<path style="opacity:0.7;fill:#FFFFFF;" d="M111.225,227.799l0.731-0.019c-0.592,0.015-1.109,0.509-1.156,1.102l-1.887,23.868
							c-0.047,0.593,0.395,1.062,0.987,1.046l-0.731,0.019c-0.592,0.015-1.033-0.453-0.986-1.047l1.887-23.867
							C110.116,228.307,110.634,227.814,111.225,227.799z"/>
					</g>
				</g>
				<g>
					<path style="fill:#CE7A63;" d="M101.891,247.257c3.281-0.21,5.584-0.703,5.584-0.703l3.536,0.382c0,0,4.326,0.929,5.256,0
						c1.115-1.115,0.992-5.081,0-6.307c-0.876-1.082-5.447-1.158-5.447-1.158l-3.99,2.114c0,0-2.068,0.376-4.873,0.402
						L101.891,247.257z"/>
					<path style="fill:#407BFF;" d="M102.464,247.711c-8.143,0.521-23.376-0.699-23.358-15.511
						c0.009-7.628,3.809-28.225,11.836-27.397c8.027,0.828-3.536,9.138-3.536,26.342c0,9.854,9.203,10.205,15.123,10.149
						L102.464,247.711z"/>
					<path style="opacity:0.1;" d="M102.464,247.711c-8.143,0.521-23.376-0.699-23.358-15.511
						c0.009-7.628,3.809-28.225,11.836-27.397c8.027,0.828-3.536,9.138-3.536,26.342c0,9.854,9.203,10.205,15.123,10.149
						L102.464,247.711z"/>
				</g>
			</g>
		</g>
		<g>
			<path style="fill:#263238;" d="M97.183,189.373c0,0,2.828-1.879,1.463-7.482c0,0,4.439-1.182,5.161-4.453
				c0,0,0.8,2.836,2.397,2.523c1.597-0.313,0-3.053,0-3.053s2.521,2.517,3.807,2.299c1.286-0.219,0-2.299,0-2.299
				s1.131,2.455,2.511,2.013c1.379-0.442-0.579-2.673-0.579-2.673s1.789,2.539,2.183,1.337c0.394-1.203-4.77-6.776-12.001-5.804
				c0,0-8.911-1.326-11.298,7.691c0,0-3.794,2.478-1.918,8.374C88.91,187.846,98.067,189.572,97.183,189.373z"/>
		</g>
		<path style="fill:#CE7A63;" d="M94.052,189.868c0.455,1.153,1.35,2.077,2.488,2.57c1.513,0.64,2.477-0.66,2.233-2.198
			c-0.219-1.379-1.271-3.381-2.876-3.372c-1.168,0.043-2.08,1.024-2.037,2.193C93.87,189.34,93.936,189.615,94.052,189.868z"/>
	</g>
</g>
<g id="Graphic">
	<g>
		<g>
			<path style="fill:#407BFF;" d="M380.275,134.461c0-8.094-7.974-14.656-17.811-14.656c-9.837,0-17.811,6.562-17.811,14.656
				c0,8.094,7.974,14.656,17.811,14.656c0.984,0,1.948-0.068,2.888-0.195l7.264,3.763l-0.718-5.795
				C376.927,144.3,380.275,139.703,380.275,134.461z"/>
			<path style="opacity:0.5;fill:#FFFFFF;" d="M380.275,134.461c0-8.094-7.974-14.656-17.811-14.656
				c-9.837,0-17.811,6.562-17.811,14.656c0,8.094,7.974,14.656,17.811,14.656c0.984,0,1.948-0.068,2.888-0.195l7.264,3.763
				l-0.718-5.795C376.927,144.3,380.275,139.703,380.275,134.461z"/>
		</g>
		<g>
			<g>
				<path style="fill:#FFFFFF;" d="M368.155,135.241c0-3.013-2.466-5.451-5.491-5.403c-2.722,0.043-5.237,2.524-5.315,5.245
					c-0.051,1.788,0.769,3.385,2.065,4.404c0.726,0.57,1.231,1.374,1.371,2.287l0.019,0.123c0.099,0.643,0.652,1.118,1.303,1.118
					h1.285c0.651,0,1.204-0.475,1.303-1.118l0.019-0.125c0.138-0.897,0.618-1.703,1.336-2.258
					C367.331,138.527,368.155,136.982,368.155,135.241z"/>
				<path style="fill:#407BFF;" d="M363.048,145.309h-0.593c-0.796,0-1.447-0.651-1.447-1.447l0,0c0-0.253,0.205-0.458,0.458-0.458
					h2.572c0.253,0,0.458,0.205,0.458,0.458l0,0C364.495,144.657,363.844,145.309,363.048,145.309z"/>
				<path style="opacity:0.2;fill:#FFFFFF;" d="M363.048,145.309h-0.593c-0.796,0-1.447-0.651-1.447-1.447l0,0
					c0-0.253,0.205-0.458,0.458-0.458h2.572c0.253,0,0.458,0.205,0.458,0.458l0,0C364.495,144.657,363.844,145.309,363.048,145.309z
					"/>
				<g>
					<polygon style="fill:#407BFF;" points="364.294,139.589 363.734,139.436 364.446,136.818 363.763,137.224 363.695,136.402 
						362.751,137.098 361.808,136.402 361.74,137.224 361.056,136.818 361.769,139.436 361.208,139.589 360.118,135.583 
						361.237,136.249 361.315,135.317 362.751,136.376 364.187,135.317 364.265,136.249 365.384,135.583 					"/>
				</g>
				<g style="opacity:0.5;">
					<polygon style="fill:#FFFFFF;" points="364.294,139.589 363.734,139.436 364.446,136.818 363.763,137.224 363.695,136.402 
						362.751,137.098 361.808,136.402 361.74,137.224 361.056,136.818 361.769,139.436 361.208,139.589 360.118,135.583 
						361.237,136.249 361.315,135.317 362.751,136.376 364.187,135.317 364.265,136.249 365.384,135.583 					"/>
				</g>
			</g>
			<g>
				<rect x="362.419" y="124.122" style="fill:#FFFFFF;" width="0.664" height="4.539"/>
			</g>
			<g>
				<rect x="369.56" y="135.137" style="fill:#FFFFFF;" width="4.539" height="0.664"/>
			</g>
			<g>
				<rect x="351.404" y="135.137" style="fill:#FFFFFF;" width="4.539" height="0.664"/>
			</g>
			<g>
				
					<rect x="366.901" y="128.718" transform="matrix(0.7071 -0.7071 0.7071 0.7071 16.8751 298.8407)" style="fill:#FFFFFF;" width="4.539" height="0.664"/>
			</g>
			<g>
				
					<rect x="354.063" y="141.556" transform="matrix(0.7071 -0.7071 0.7071 0.7071 4.0371 293.523)" style="fill:#FFFFFF;" width="4.539" height="0.664"/>
			</g>
			<g>
				
					<rect x="368.838" y="139.619" transform="matrix(0.7071 -0.7071 0.7071 0.7071 7.8048 302.6177)" style="fill:#FFFFFF;" width="0.664" height="4.539"/>
			</g>
			<g>
				
					<rect x="356" y="126.781" transform="matrix(0.7071 -0.7071 0.7071 0.7071 13.12 289.7736)" style="fill:#FFFFFF;" width="0.664" height="4.539"/>
			</g>
		</g>
	</g>
	<g>
		<g>
			<path style="fill:#407BFF;" d="M99.299,141.648c0-10.556,10.399-19.113,23.227-19.113c12.828,0,23.227,8.557,23.227,19.113
				s-10.399,19.113-23.227,19.113c-1.283,0-2.54-0.089-3.766-0.254l-7.473,4.907l-1.064-7.557
				C103.664,154.478,99.299,148.484,99.299,141.648z"/>
			<path style="opacity:0.5;fill:#FFFFFF;" d="M99.299,141.648c0-10.556,10.399-19.113,23.227-19.113
				c12.828,0,23.227,8.557,23.227,19.113s-10.399,19.113-23.227,19.113c-1.283,0-2.54-0.089-3.766-0.254l-7.473,4.907l-1.064-7.557
				C103.664,154.478,99.299,148.484,99.299,141.648z"/>
		</g>
		<g>
			<g>
				<path style="fill:#FFFFFF;" d="M115.104,142.666c0-3.929,3.216-7.108,7.16-7.046c3.55,0.056,6.83,3.292,6.931,6.84
					c0.066,2.332-1.002,4.414-2.693,5.742c-0.947,0.744-1.605,1.792-1.788,2.982l-0.025,0.161c-0.129,0.839-0.851,1.458-1.7,1.458
					h-1.676c-0.849,0-1.571-0.619-1.7-1.458l-0.025-0.163c-0.18-1.17-0.806-2.221-1.743-2.944
					C116.179,146.951,115.104,144.935,115.104,142.666z"/>
				<path style="fill:#407BFF;" d="M121.744,155.794h0.814c1.027,0,1.867-0.84,1.867-1.867V153.9c0-0.327-0.265-0.591-0.591-0.591
					h-3.367c-0.326,0-0.591,0.265-0.591,0.591v0.027C119.877,154.954,120.717,155.794,121.744,155.794z"/>
				<path style="opacity:0.2;fill:#FFFFFF;" d="M121.744,155.794h0.814c1.027,0,1.867-0.84,1.867-1.867V153.9
					c0-0.327-0.265-0.591-0.591-0.591h-3.367c-0.326,0-0.591,0.265-0.591,0.591v0.027
					C119.877,154.954,120.717,155.794,121.744,155.794z"/>
				<g>
					<polygon style="fill:#407BFF;" points="120.138,148.336 120.87,148.136 119.941,144.722 120.832,145.251 120.921,144.18 
						122.151,145.086 123.381,144.18 123.47,145.251 124.361,144.722 123.432,148.136 124.164,148.336 125.585,143.112 
						124.126,143.98 124.024,142.764 122.151,144.145 120.278,142.764 120.177,143.98 118.717,143.112 					"/>
				</g>
				<g style="opacity:0.5;">
					<polygon style="fill:#FFFFFF;" points="120.138,148.336 120.87,148.136 119.941,144.722 120.832,145.251 120.921,144.18 
						122.151,145.086 123.381,144.18 123.47,145.251 124.361,144.722 123.432,148.136 124.164,148.336 125.585,143.112 
						124.126,143.98 124.024,142.764 122.151,144.145 120.278,142.764 120.177,143.98 118.717,143.112 					"/>
				</g>
			</g>
			<g>
				<rect x="121.718" y="128.165" style="fill:#FFFFFF;" width="0.866" height="5.919"/>
			</g>
			<g>
				<rect x="107.353" y="142.53" style="fill:#FFFFFF;" width="5.919" height="0.866"/>
			</g>
			<g>
				<rect x="131.03" y="142.53" style="fill:#FFFFFF;" width="5.919" height="0.866"/>
			</g>
			<g>
				
					<rect x="113.347" y="131.633" transform="matrix(0.707 -0.7072 0.7072 0.707 -61.8467 119.8903)" style="fill:#FFFFFF;" width="0.866" height="5.919"/>
			</g>
			<g>
				
					<rect x="130.089" y="148.374" transform="matrix(0.707 -0.7072 0.7072 0.707 -68.7813 136.6338)" style="fill:#FFFFFF;" width="0.866" height="5.919"/>
			</g>
			<g>
				
					<rect x="110.821" y="150.901" transform="matrix(0.7071 -0.7071 0.7071 0.7071 -73.6823 124.7705)" style="fill:#FFFFFF;" width="5.919" height="0.866"/>
			</g>
			<g>
				
					<rect x="127.562" y="134.159" transform="matrix(0.7071 -0.7071 0.7071 0.7071 -56.942 131.7095)" style="fill:#FFFFFF;" width="5.919" height="0.866"/>
			</g>
		</g>
	</g>
</g>
<g id="Desk">
	<g>
		<g>
			<path style="fill:#407BFF;" d="M197.745,293.706c-0.565,0-1.023-0.458-1.023-1.023c0-0.565,0.458-1.023,1.023-1.023h27.887
				c0.565,0,1.023,0.458,1.023,1.023c0,0.565-0.458,1.023-1.023,1.023H197.745z"/>
			<path style="opacity:0.5;fill:#FFFFFF;" d="M197.745,293.706c-0.565,0-1.023-0.458-1.023-1.023c0-0.565,0.458-1.023,1.023-1.023
				h27.887c0.565,0,1.023,0.458,1.023,1.023c0,0.565-0.458,1.023-1.023,1.023H197.745z"/>
			<path style="fill:#407BFF;" d="M200.113,291.935l-3.712-26.415c-0.136-0.972-1.035-1.759-2.007-1.759h-3.557v29.934h7.763
				C199.573,293.695,200.25,292.907,200.113,291.935z"/>
			<path style="opacity:0.6;fill:#FFFFFF;" d="M200.113,291.935l-3.712-26.415c-0.136-0.972-1.035-1.759-2.007-1.759h-3.557v29.934
				h7.763C199.573,293.695,200.25,292.907,200.113,291.935z"/>
		</g>
		<g>
			<path style="fill:#407BFF;" d="M197.066,293.695h-31.532c-0.972,0-1.87-0.788-2.007-1.759l-3.712-26.415
				c-0.137-0.972,0.54-1.759,1.512-1.759h31.532c0.972,0,1.87,0.788,2.007,1.759l3.712,26.415
				C198.715,292.907,198.038,293.695,197.066,293.695z"/>
		</g>
		<path style="opacity:0.5;fill:#FFFFFF;" d="M197.066,293.695h-31.532c-0.972,0-1.87-0.788-2.007-1.759l-3.712-26.415
			c-0.137-0.972,0.54-1.759,1.512-1.759h31.532c0.972,0,1.87,0.788,2.007,1.759l3.712,26.415
			C198.715,292.907,198.038,293.695,197.066,293.695z"/>
		<path style="opacity:0.7;fill:#FFFFFF;" d="M181.815,280.091c0.211,1.499-0.833,2.714-2.333,2.714
			c-1.499,0-2.885-1.215-3.096-2.714c-0.211-1.499,0.834-2.714,2.333-2.714C180.219,277.377,181.605,278.593,181.815,280.091z"/>
	</g>
	<g>
		<g>
			<g>
				<g>
					<polygon style="fill:#263238;" points="343.143,412.401 340.529,412.401 337.164,300.229 340.619,300.229 					"/>
					<polygon style="opacity:0.6;fill:#FFFFFF;" points="343.143,412.401 340.529,412.401 337.164,300.229 340.619,300.229 					"/>
				</g>
				<g>
					<polygon style="fill:#263238;" points="300.988,300.229 300.988,412.401 303.756,412.401 307.01,305.354 340.396,305.354 
						342.837,412.401 345.577,412.401 345.577,300.229 					"/>
					<polygon style="opacity:0.4;fill:#FFFFFF;" points="300.988,300.229 300.988,412.401 303.756,412.401 307.01,305.354 
						340.396,305.354 342.837,412.401 345.577,412.401 345.577,300.229 					"/>
				</g>
				<g>
					<polygon style="fill:#263238;" points="300.988,412.401 298.375,412.401 297.533,300.229 300.988,300.229 					"/>
					<polygon style="opacity:0.6;fill:#FFFFFF;" points="300.988,412.401 298.375,412.401 297.533,300.229 300.988,300.229 					"/>
				</g>
			</g>
			<g>
				<g>
					<polygon style="fill:#263238;" points="201.245,412.401 198.631,412.401 195.266,300.229 198.721,300.229 					"/>
					<polygon style="opacity:0.6;fill:#FFFFFF;" points="201.245,412.401 198.631,412.401 195.266,300.229 198.721,300.229 					"/>
				</g>
				<g>
					<polygon style="fill:#263238;" points="159.091,300.229 159.091,412.401 161.858,412.401 165.112,305.354 198.499,305.354 
						200.939,412.401 203.679,412.401 203.679,300.229 					"/>
					<polygon style="opacity:0.4;fill:#FFFFFF;" points="159.091,300.229 159.091,412.401 161.858,412.401 165.112,305.354 
						198.499,305.354 200.939,412.401 203.679,412.401 203.679,300.229 					"/>
				</g>
				<g>
					<polygon style="fill:#263238;" points="159.091,412.401 156.477,412.401 155.636,300.229 159.091,300.229 					"/>
					<polygon style="opacity:0.6;fill:#FFFFFF;" points="159.091,412.401 156.477,412.401 155.636,300.229 159.091,300.229 					"/>
				</g>
			</g>
		</g>
		<g>
			<g>
				<rect x="151.061" y="293.779" style="fill:#263238;" width="147.771" height="6.45"/>
			</g>
			<rect x="151.061" y="293.779" style="opacity:0.4;fill:#FFFFFF;" width="147.771" height="6.45"/>
			<g>
				<rect x="294.815" y="293.779" style="fill:#263238;" width="55.336" height="6.45"/>
			</g>
			<rect x="294.815" y="293.779" style="opacity:0.3;fill:#FFFFFF;" width="55.336" height="6.45"/>
		</g>
	</g>
	<g>
		<g>
			<path style="fill:#407BFF;" d="M322.369,293.94h-36.652c-0.968,0-1.864-0.785-2-1.754l-3.699-26.324
				c-0.136-0.968,0.539-1.754,1.507-1.754h36.653c0.968,0,1.864,0.785,2,1.754l3.699,26.324
				C324.013,293.155,323.338,293.94,322.369,293.94z"/>
			<path style="opacity:0.5;fill:#FFFFFF;" d="M322.369,293.94h-36.652c-0.968,0-1.864-0.785-2-1.754l-3.699-26.324
				c-0.136-0.968,0.539-1.754,1.507-1.754h36.653c0.968,0,1.864,0.785,2,1.754l3.699,26.324
				C324.013,293.155,323.338,293.94,322.369,293.94z"/>
			<path style="fill:#263238;" d="M320.076,290.008l-32.569-0.151c-0.893,0-1.718-0.724-1.843-1.616l-2.894-19.875
				c-0.125-0.893,0.496-1.616,1.389-1.616l32.569,0.151c0.892,0,1.718,0.724,1.843,1.616l2.894,19.875
				C321.59,289.284,320.968,290.008,320.076,290.008z"/>
		</g>
		<g>
			<path style="fill:#407BFF;" d="M345.214,293.82h-44.365c-0.681,0-1.232-0.552-1.232-1.232l0,0c0-0.681,0.552-1.232,1.232-1.232
				h44.365c0.681,0,1.232,0.552,1.232,1.232l0,0C346.446,293.268,345.895,293.82,345.214,293.82z"/>
		</g>
		<path style="opacity:0.7;fill:#FFFFFF;" d="M345.214,293.82h-44.365c-0.681,0-1.232-0.552-1.232-1.232l0,0
			c0-0.681,0.552-1.232,1.232-1.232h44.365c0.681,0,1.232,0.552,1.232,1.232l0,0C346.446,293.268,345.895,293.82,345.214,293.82z"/>
		<path style="fill:#407BFF;" d="M310.214,293.82h-23.661c-0.681,0-1.232-0.552-1.232-1.232l0,0c0-0.681,0.552-1.232,1.232-1.232
			h23.661c0.681,0,1.232,0.552,1.232,1.232l0,0C311.447,293.268,310.895,293.82,310.214,293.82z"/>
		<path style="opacity:0.6;fill:#FFFFFF;" d="M310.214,293.82h-23.661c-0.681,0-1.232-0.552-1.232-1.232l0,0
			c0-0.681,0.552-1.232,1.232-1.232h23.661c0.681,0,1.232,0.552,1.232,1.232l0,0C311.447,293.268,310.895,293.82,310.214,293.82z"/>
	</g>
</g>
</svg>
