<?xml version="1.0" encoding="UTF-8" standalone="no"?>
<!DOCTYPE svg PUBLIC "-//W3C//DTD SVG 1.1//EN" "http://www.w3.org/Graphics/SVG/1.1/DTD/svg11.dtd">
<!-- Created with Vectornator (http://vectornator.io/) -->
<svg height="100%" stroke-miterlimit="10" style="fill-rule:nonzero;clip-rule:evenodd;stroke-linecap:round;stroke-linejoin:round;" version="1.1" viewBox="0 0 512 512" width="100%" xml:space="preserve" xmlns="http://www.w3.org/2000/svg" xmlns:xlink="http://www.w3.org/1999/xlink">
<defs/>
<g id="Слой-1">
<g opacity="1">
<path d="M62.7562 214.164C62.7562 259.188 99.4128 295.844 144.437 295.844C159.179 295.844 173.523 291.86 185.874 284.289C191.453 281.102 193.445 273.531 189.859 267.953C186.671 262.375 179.101 260.383 173.523 263.969C164.757 269.149 154.398 271.938 144.038 271.938C112.163 271.938 86.2642 246.039 86.2642 214.164C86.2642 183.882 109.772 158.78 140.054 156.788C146.827 156.39 151.609 150.812 151.21 144.038C150.812 137.265 145.233 132.483 138.46 132.882C96.2252 135.272 62.7562 171.132 62.7562 214.164ZM9.36514 417.767C11.3573 418.962 13.3495 419.361 15.3417 419.361C19.3262 419.361 23.709 417.369 25.7012 413.384C43.2326 382.306 73.1157 358.798 107.78 349.235C114.155 347.641 117.741 340.868 116.147 334.493C114.554 328.118 107.78 324.532 101.405 326.126C60.764 337.68 25.7012 365.173 4.98229 401.431C1.79476 407.408 3.78696 414.579 9.36514 417.767ZM449.244 214.164C449.244 171.531 415.775 135.671 373.142 132.882C366.767 132.483 360.79 137.265 360.391 144.038C359.993 150.812 364.774 156.39 371.548 156.788C401.829 158.78 425.337 183.882 425.337 214.164C425.337 246.039 399.439 271.938 367.563 271.938C357.204 271.938 346.845 269.149 338.079 263.969C332.501 260.781 324.93 262.375 321.743 267.953C318.555 273.531 320.149 281.102 325.727 284.289C338.079 291.86 352.821 295.844 367.165 295.844C412.587 295.446 449.244 259.188 449.244 214.164ZM410.595 326.126C404.22 324.532 397.446 328.118 395.853 334.493C394.259 340.868 397.845 347.641 404.22 349.235C438.486 358.798 468.369 382.306 486.299 413.384C488.689 417.369 492.674 419.361 496.658 419.361C498.65 419.361 500.643 418.962 502.635 417.767C508.213 414.579 510.205 407.408 507.018 401.431C486.299 365.173 451.236 337.68 410.595 326.126Z" fill="#FFF" fill-rule="nonzero" opacity="1" stroke="#00162e" stroke-linecap="butt" stroke-linejoin="round" stroke-opacity="0.988739" stroke-width="0.407715"/>
<path d="M256 92.6393C205.398 92.6393 164.359 133.679 164.359 184.281C164.359 234.883 205.398 275.922 256 275.922C306.602 275.922 347.641 234.883 347.641 184.281C347.641 133.679 306.602 92.6393 256 92.6393ZM256 252.016C218.547 252.016 188.265 221.734 188.265 184.281C188.265 146.827 218.547 116.546 256 116.546C293.453 116.546 323.735 146.827 323.735 184.281C323.735 221.734 293.453 252.016 256 252.016ZM102.6 417.767C104.592 418.962 106.585 419.361 108.577 419.361C112.561 419.361 116.944 417.369 118.936 413.384C146.827 363.977 199.421 333.298 256.398 333.298C312.977 333.298 365.571 363.977 393.861 413.384C397.048 418.962 404.22 420.954 410.197 417.767C415.775 414.579 417.767 407.408 414.579 401.431C381.907 344.852 321.344 309.391 256 309.391C190.656 309.391 130.093 344.852 97.819 401.431C94.6315 407.408 96.6237 414.579 102.6 417.767Z" fill="#FFF" fill-rule="nonzero" opacity="1" stroke="#00162e" stroke-linecap="butt" stroke-linejoin="round" stroke-opacity="0.988739" stroke-width="0.407715"/>
</g>
</g>
</svg>
